<svg xmlns="http://www.w3.org/2000/svg" version="1.1" xmlns:xlink="http://www.w3.org/1999/xlink" xmlns:svgjs="http://svgjs.com/svgjs" width="1920" height="1080" preserveAspectRatio="none" viewBox="0 0 1920 1080"><g mask="url(&quot;#SvgjsMask1051&quot;)" fill="none"><rect width="1920" height="1080" x="0" y="0" fill="#1e3266"></rect><path d="M2080 1080L0 1080 L0 517.16Q-8.28 412.88, 96 404.6Q139.73 288.33, 256 332.05Q261.86 241.91, 352 247.77Q443.22 179, 512 270.22Q536.85 199.07, 608 223.92Q721.77 177.69, 768 291.46Q852.3 279.75, 864 364.05Q888.01 228.06, 1024 252.08Q1122.2 190.28, 1184 288.48Q1289.48 233.97, 1344 339.45Q1456.34 291.79, 1504 404.13Q1566.05 370.18, 1600 432.22Q1624.85 297.07, 1760 321.92Q1854.88 256.81, 1920 351.69Q2011.05 282.74, 2080 373.79z" fill="#182f5d"></path><path d="M1984 1080L0 1080 L0 703.47Q-42.73 564.74, 96 522.01Q131.25 461.26, 192 496.52Q223.37 431.88, 288 463.25Q326.82 406.07, 384 444.9Q504.42 405.31, 544 525.73Q623.19 508.92, 640 588.11Q706.95 495.06, 800 562.01Q810.69 476.7, 896 487.4Q950.7 446.1, 992 500.79Q1086.61 499.4, 1088 594.01Q1115.38 525.39, 1184 552.77Q1220.35 493.12, 1280 529.47Q1336.47 425.94, 1440 482.41Q1477.12 423.53, 1536 460.65Q1616.73 445.38, 1632 526.11Q1701.6 435.71, 1792 505.31Q1862.02 479.33, 1888 549.34Q1977.32 542.66, 1984 631.99z" fill="#25467d"></path><path d="M2080 1080L0 1080 L0 868.54Q21.86 730.4, 160 752.26Q222.29 654.55, 320 716.84Q396.08 696.92, 416 773.01Q541.38 802.39, 512 927.77Q476.24 732, 672 696.24Q712.1 640.34, 768 680.44Q839.43 655.88, 864 727.31Q989.34 692.64, 1024 817.98Q1077.88 775.86, 1120 829.74Q1222.62 836.36, 1216 938.98Q1202.08 765.06, 1376 751.14Q1413.81 692.95, 1472 730.76Q1483.29 646.05, 1568 657.33Q1621.92 615.25, 1664 669.17Q1823.73 668.9, 1824 828.63Q1916.49 825.12, 1920 917.61Q1939.53 777.14, 2080 796.68z" fill="#356cb1"></path><path d="M2016 1080L0 1080 L0 969.07Q41.88 914.96, 96 956.84Q122.41 887.25, 192 913.67Q287.38 849.05, 352 944.43Q425.06 857.49, 512 930.55Q536.15 858.7, 608 882.85Q696.89 811.75, 768 900.64Q827.06 863.7, 864 922.76Q1036.14 934.9, 1024 1107.04Q1131.01 1054.05, 1184 1161.05Q1231.58 1048.63, 1344 1096.21Q1412.09 1068.3, 1440 1136.38Q1458.78 995.16, 1600 1013.94Q1624.21 878.15, 1760 902.37Q1851.59 833.96, 1920 925.56Q2043.04 952.6, 2016 1075.64z" fill="rgba(53, 177, 255, 0.52)"></path></g><defs><mask id="SvgjsMask1051"><rect width="1920" height="1080" fill="#ffffff"></rect></mask></defs></svg>