<svg xmlns="http://www.w3.org/2000/svg" version="1.1" xmlns:xlink="http://www.w3.org/1999/xlink" xmlns:svgjs="http://svgjs.com/svgjs" width="1920" height="1080" preserveAspectRatio="none" viewBox="0 0 1920 1080"><g mask="url(&quot;#SvgjsMask1011&quot;)" fill="none"><rect width="1920" height="1080" x="0" y="0" fill="#1e3266"></rect><path d="M2080 1080L0 1080 L0 546.33Q112.63 498.97, 160 611.6Q245.45 537.05, 320 622.5Q362.62 505.12, 480 547.74Q567.98 475.72, 640 563.7Q769.28 532.99, 800 662.27Q871.68 637.95, 896 709.64Q902.92 556.56, 1056 563.48Q1126.91 474.39, 1216 545.31Q1318.7 488.01, 1376 590.72Q1467.08 585.8, 1472 676.88Q1486.3 595.18, 1568 609.49Q1593.02 538.5, 1664 563.52Q1728.09 531.61, 1760 595.69Q1878.78 554.47, 1920 673.24Q1934.3 527.54, 2080 541.83z" fill="#182f5d"></path><path d="M1984 1080L0 1080 L0 770.91Q28.78 703.69, 96 732.47Q216.9 693.37, 256 814.27Q270.12 668.38, 416 682.5Q472.8 643.3, 512 700.1Q655.38 683.48, 672 826.85Q739.2 734.05, 832 801.25Q866.83 676.08, 992 710.91Q1083.99 642.9, 1152 734.9Q1207.37 630.27, 1312 685.64Q1379.01 656.65, 1408 723.66Q1508.09 663.75, 1568 763.83Q1688.6 724.43, 1728 845.03Q1748.31 769.34, 1824 789.64Q1857.01 662.65, 1984 695.66z" fill="#25467d"></path><path d="M1952 1080L0 1080 L0 904.39Q10.86 819.25, 96 830.11Q138.58 776.69, 192 819.27Q283.99 815.26, 288 907.25Q320.13 843.38, 384 875.51Q401.63 797.14, 480 814.77Q569.86 744.63, 640 834.48Q711.77 810.25, 736 882.03Q830.23 816.26, 896 910.49Q957.39 875.88, 992 937.28Q1000.61 849.89, 1088 858.5Q1128.7 803.2, 1184 843.91Q1216.6 780.51, 1280 813.11Q1403.41 776.53, 1440 899.94Q1455.4 819.34, 1536 834.74Q1590.65 793.39, 1632 848.05Q1732.5 788.55, 1792 889.06Q1899.13 836.19, 1952 943.32z" fill="#356cb1"></path><path d="M1984 1080L0 1080 L0 1117.16Q18.45 1039.61, 96 1058.06Q170.78 972.84, 256 1047.61Q295.4 927.01, 416 966.41Q513.79 904.2, 576 1001.99Q630.13 896.13, 736 950.26Q798.05 916.31, 832 978.35Q936.06 986.41, 928 1090.48Q1023.13 1025.61, 1088 1120.74Q1101.75 1038.49, 1184 1052.24Q1193.34 965.58, 1280 974.92Q1334.59 933.5, 1376 988.09Q1491.66 1007.76, 1472 1123.42Q1463.55 954.97, 1632 946.53Q1680.21 898.74, 1728 946.94Q1820.44 879.38, 1888 971.82Q1959.82 947.64, 1984 1019.47z" fill="white"></path></g><defs><mask id="SvgjsMask1011"><rect width="1920" height="1080" fill="#ffffff"></rect></mask></defs></svg>