<svg xmlns="http://www.w3.org/2000/svg" version="1.1" xmlns:xlink="http://www.w3.org/1999/xlink" xmlns:svgjs="http://svgjs.com/svgjs" width="1920" height="1080" preserveAspectRatio="none" viewBox="0 0 1920 1080"><g mask="url(&quot;#SvgjsMask1041&quot;)" fill="none"><rect width="1920" height="1080" x="0" y="0" fill="url(#SvgjsLinearGradient1042)"></rect><circle r="16.49" cx="1498.03" cy="650.14" filter="url(#SvgjsFilter1043)" fill="rgba(51, 121, 194, 0.58)"></circle><circle r="9.295" cx="1182.025" cy="850.8549999999999" filter="url(#SvgjsFilter1043)" fill="rgba(51, 121, 194, 0.58)"></circle><circle r="15.555" cx="1352.4950000000001" cy="757.875" filter="url(#SvgjsFilter1043)" fill="rgba(51, 121, 194, 0.58)"></circle><circle r="10.845" cx="1550.575" cy="521.805" filter="url(#SvgjsFilter1043)" fill="rgba(51, 121, 194, 0.58)"></circle><circle r="14.985" cx="393.695" cy="470.735" filter="url(#SvgjsFilter1043)" fill="rgba(51, 121, 194, 0.58)"></circle><circle r="15.62" cx="1749.06" cy="631.98" filter="url(#SvgjsFilter1043)" fill="rgba(51, 121, 194, 0.58)"></circle><circle r="11.155" cx="86.285" cy="341.18499999999995" filter="url(#SvgjsFilter1043)" fill="rgba(51, 121, 194, 0.58)"></circle><circle r="13.42" cx="1457.8000000000002" cy="1061.65" filter="url(#SvgjsFilter1043)" fill="rgba(51, 121, 194, 0.58)"></circle><circle r="13.285" cx="1897.095" cy="371.685" filter="url(#SvgjsFilter1043)" fill="rgba(51, 121, 194, 0.58)"></circle><circle r="14.12" cx="913.37" cy="744.54" filter="url(#SvgjsFilter1043)" fill="rgba(51, 121, 194, 0.58)"></circle><circle r="9.8" cx="456.36" cy="114.24" filter="url(#SvgjsFilter1043)" fill="rgba(51, 121, 194, 0.58)"></circle><circle r="11.25" cx="1895.13" cy="1062.05" filter="url(#SvgjsFilter1043)" fill="rgba(51, 121, 194, 0.58)"></circle><circle r="11.215" cx="1156.8349999999998" cy="640.605" filter="url(#SvgjsFilter1043)" fill="rgba(51, 121, 194, 0.58)"></circle><circle r="10.235" cx="278.865" cy="569.615" filter="url(#SvgjsFilter1043)" fill="rgba(51, 121, 194, 0.58)"></circle><circle r="13.57" cx="1159.81" cy="825.5200000000001" filter="url(#SvgjsFilter1043)" fill="rgba(51, 121, 194, 0.58)"></circle><circle r="16.7" cx="1439.05" cy="1057.15" filter="url(#SvgjsFilter1043)" fill="rgba(51, 121, 194, 0.58)"></circle><circle r="15.75" cx="1770.17" cy="409.71" filter="url(#SvgjsFilter1043)" fill="rgba(51, 121, 194, 0.58)"></circle><circle r="9.845" cx="800.5450000000001" cy="37.105000000000004" filter="url(#SvgjsFilter1043)" fill="rgba(51, 121, 194, 0.58)"></circle><circle r="11.47" cx="1571" cy="207.76" filter="url(#SvgjsFilter1043)" fill="rgba(51, 121, 194, 0.58)"></circle><circle r="13.32" cx="120.38" cy="366.53" filter="url(#SvgjsFilter1043)" fill="rgba(51, 121, 194, 0.58)"></circle><path d="M530 464L595.7 438.1 613.7 445.5 618.9 488.7 603.1 500.9 533.1 490.3C532.3 490.4 532.3 490.4 531.4 490.5 529.7 490.7 528.1 491.7 527.6 494.4 527.9 496.9 528.9 498.5 531.6 499L592.8 508.1 568.4 526.5 541.3 522.8C541.3 522.8 540.4 522.9 540.4 522.9 538.7 523.1 537.1 524.2 536.6 526.8 536 528.6 538 530.9 540.6 531.5L558.2 534.6 540 547.9C538.4 548.9 537.8 551.6 539 554S543.5 556.1 546 554.9L563.3 541.7 561.1 559.1C560.5 561.8 562.5 564.1 565.2 564.7 566.9 564.5 569.3 563.3 569.8 560.7L573.5 533.6 598.8 515.1 589.8 576.3C589.2 579 591.2 581.3 593 582 595.5 581.7 598 580.5 598.5 577.9L608.3 508 624.9 495.7 663.8 512.5 666.2 532.9 623 588.7C621.5 590.6 621.8 593.2 623.7 594.7S628.2 595.8 629.7 593.9L667.6 544.7 671.4 576.1 654.9 597C653.4 598.9 653.7 601.4 655.7 603.7S660.2 604.9 661.7 603L672.8 588 675.5 610.8C675.8 613.4 678.5 614.8 681.1 614.5 683.6 614.2 685.1 612.3 684.8 609.7L682.1 586.9 696.3 598.1C698.3 600.4 700.9 600.1 702.3 597.3 703.7 595.5 703.4 592.9 701.5 591.4L680.7 575 677 543.6 725.4 582.6C727.3 584.1 730.7 583.7 732.2 581.8S733.4 577.3 731.5 575.8L675.5 531.8 673.1 511.4 707.9 485.8 726.1 494 751.9 559.6C753.1 562.1 755.7 562.6 758.2 562.3 760.7 561.2 761.2 558.5 760.9 556L737.8 498.6 765.9 510.7 775.8 536.2C776.9 538.6 779.6 539.2 782.1 538.9 783.7 537.8 785.1 535.1 783.9 532.6L777.7 516.2 798.5 524.9C800.3 525.5 802.7 524.4 804.2 522.5 804.8 519.9 803.6 517.4 801.8 516.8L781 508.1 798.2 500.9C799.8 499.8 801.2 497.1 800.1 495.5 799.8 492.9 798 492.3 795.5 492.6 795.5 492.6 794.6 492.7 794.6 492.7L769.2 502.6 741.1 490.5 798.5 467.3C800.9 466.2 802.4 464.3 801.3 461.8 800.1 459.4 798.3 458.7 796.7 458.9 795.8 459 795.8 459 795.8 459L729.4 485.8 711.2 477.7 706.1 434.5 721.9 423.1 792.7 432.8C794.5 433.4 796.8 431.4 797.5 429.6 798 427 796 424.6 793.4 424.1L732.1 415.1 756.6 396.7 783.7 400.3C786.3 400.9 788.8 399.7 788.4 397.2 789 394.5 787 392.2 785.2 391.6L766.9 389.4 785.1 376.1C786.6 374.2 787.1 371.6 786 369.1 785 368.4 783.2 367.7 781.5 367.9 780.7 368 780.7 368 779.9 369L761.8 382.3 763.9 364C764.4 361.4 762.5 359.9 760.7 359.2 759.9 359.3 759.9 359.3 759 359.4 757.3 359.6 755.8 360.7 755.1 362.5L751.4 389.6 727 407.9 736 346.7C735.7 344.2 734.6 341.7 732 342 731.1 341.3 731.1 341.3 730.3 341.4 728.6 341.6 727.1 343.5 726.4 345.3L716.8 416 700.9 427.4 661.1 410.6 658.8 391.1 702.9 335.2C704.4 333.3 704 329.9 702.1 328.4S696.8 327.3 695.3 329.2L657.3 378.4 653.7 347.9 670 326.2C671.5 324.3 671.2 321.8 669.3 320.3 667.4 318.8 664.9 319.1 663.4 321L652.2 335.2 649.5 312.3C649.3 310.6 647.3 308.3 644.7 308.6 642.2 308.9 639.9 311.7 640.1 313.4L642.9 336.3 628.6 325.1C627.7 324.3 626.7 323.6 625.9 323.7 624.2 323.9 623.4 324.9 622.7 325.8 621.2 327.7 621.5 330.2 623.4 331.7L644.4 349 648 379.5 599.5 340.6C598.6 339.8 597.7 339.9 596 340.1 595.2 340.2 594.4 340.3 593.6 341.3 592.1 343.2 592.5 346.6 594.4 348.1L649.5 392.2 651.8 411.7 617.9 437.2 599 430 573 363.5C572 361.9 570.1 360.4 568.4 360.6 567.6 360.7 567.6 360.7 567.7 361.6 565.1 361.9 563.7 364.6 564.9 367L588 424.4 559.1 412.4 549.2 387C548.1 385.4 546.4 384.7 544.7 384.9 544.7 384.9 543.8 385 543.8 385 541.3 385.3 539.9 388.1 541 390.5L548.2 407.7 527.4 399C526.5 398.3 525.6 398.4 524.8 398.5 523.1 398.7 521.5 399.7 521.6 400.6 520.2 403.3 521.4 405.7 523.2 407.2L544 415.9 527.6 422.2C525.2 423.3 523.8 426.1 524.9 428.5 526 430.1 528.7 431.5 530.3 430.5L555.8 420.6 583.8 432.7 526.4 455.8C524 457 523.5 459.6 523.8 462.2 524.8 463.8 527.6 465.2 530 464ZM627.6 482.5L623.7 449.4 623 444.3 627 441.3 653 421.9 657.8 418.7 662.4 420.8 692.2 433.5 696.8 435.6 697.4 440.7 701.3 473.7 701.9 478.8 698 481.8 671.9 501.3 668 504.3 662.6 502.4 632.7 489.6 628.2 487.6 627.6 482.5Z" fill="rgba(51, 121, 194, 0.58)"></path><path d="M907.2 854.2L887.3 872.1 883 854.6C882.7 852.7 880.5 851.2 877.8 851.2 875.6 852.3 874.1 854.5 874.4 856.4L879.6 879.5 860.9 896 850.8 848.9C849.9 846 847.7 844.4 845.6 845.5 842.9 845.5 841.3 847.7 842.1 850.7L853.5 902.6 837 918 787.4 902.3 782.7 882.9 825.1 845.3C825.3 844.5 825.6 843.6 825.8 842.8 826.1 842 825.8 840.1 825.2 839.1 823.3 836.7 820.6 836.7 819 838.9L780.4 873.2 775.5 849.3 794.6 831.2C795.4 831.4 795.7 830.6 795.9 829.8 796.5 828.2 796.2 826.3 794.8 825 793.4 823.6 790.7 823.7 788.6 824.8L773.2 839.6 766.5 809.8C766.2 807.9 764 806.3 761.3 806.3 759.2 807.4 757.6 809.6 757.9 811.5L764.2 839.5 747.2 834.1C744.7 833.3 742.3 835.2 741.8 836.9 741 839.3 741.9 842.3 744.3 843L766.3 850 771.3 873.9 725.7 859.5C723.3 858.7 721.1 859.8 720.3 862.3 719.6 864.7 720.7 866.9 723.1 867.6L773.6 883.6 778.8 904 739.9 939.2 721.2 933.3 709.3 880.3C709.2 877.6 706.3 875.7 704.1 876.8 701.4 876.9 700.6 879.3 700.7 882L711.4 930.2 687.8 922.7 682.9 898.8C682.6 896.9 679.6 895 677.7 895.3S674 898.6 674 901.3L678.1 919.6 649.6 910.6C647.1 909.9 644.7 911.8 644 914.2 643.5 915.8 644.3 918.8 646.8 919.6L675.2 928.6 661.1 942C659.8 943.4 659 945.8 661 948.2 662.3 949.6 665.8 949.8 667.2 948.4L685 931.7 708.6 939.1 672.1 972.3C670.6 974.5 669.8 977 671.7 979.4 673.1 980.7 676.6 980.9 677.9 979.5L718.4 942.2 737.1 948.1 748.7 999.2 732.7 1013 682.2 997C679.8 996.2 677.7 997.4 676.9 999.8 676.1 1002.2 677 1005.2 679.4 1006L725 1020.4 707.2 1037.1 685.2 1030.2C682.7 1029.4 680.6 1030.5 679.8 1032.9 679.1 1035.4 680.2 1037.5 682.6 1038.3L699.7 1043.7 678.4 1062.9C677.1 1064.3 676.9 1067.8 678.2 1069.1 680.4 1070.7 682.9 1071.5 684.4 1069.3L706.8 1049.5 711.2 1069.7C712.3 1071.8 714.5 1073.4 716.4 1073.1 718.2 1072.8 719.6 1071.5 720.1 1069.8 720.1 1069.8 720.3 1069 719.8 1067.9L714.5 1042.1 732.3 1025.4 744.2 1075.7C744.2 1078.4 746.4 1079.9 749.4 1079.1 750.4 1078.5 751.5 1078 752 1076.4 752.3 1075.5 752.5 1074.7 752.8 1073.9L739.8 1018.8 754.7 1005.6 804.3 1021.3 809 1043.3 769.9 1079.3C767.5 1081.2 767.5 1083.9 769.7 1085.5 770.8 1087.7 773.5 1087.6 775.9 1085.7L811.3 1053 817.1 1077.2 799.5 1093.2C798.2 1094.5 798.2 1097.2 799.3 1099.4 801.5 1100.9 804 1101.7 805.6 1099.5L819.1 1087.7 825.2 1113.8C825.3 1116.5 827.7 1117.3 830.4 1117.2 831.5 1116.7 832.8 1115.3 833.3 1113.7 833.3 1113.7 833.6 1112.9 833.8 1112L827.4 1084.1 847.8 1090.5C849.4 1091 852.4 1090.2 853.1 1087.7 853.9 1085.3 852 1082.9 850.4 1082.4L825.1 1074.4 819.4 1050.2 869 1065.9C871.4 1066.7 873.8 1064.7 874.6 1062.3S874.3 1057.7 871.8 1056.9L817.3 1039.7 812.9 1019.5 851.8 984.4 872.9 991.1 884.6 1044.9C885.7 1047 887.9 1048.6 890.6 1048.5 891.7 1048 893 1046.6 893.5 1045 893.7 1044.2 894 1043.4 893.5 1042.3L882.7 994.2 906.3 1001.6 912.1 1025.8C912.4 1027.7 914.6 1029.3 917.3 1029.2 919.4 1028.1 921 1025.9 920.7 1024.1L916.1 1004.7 942.1 1012.9C943.7 1013.4 946.9 1011.8 947.5 1010.1 948.2 1007.7 946.6 1004.5 944.9 1004L918.9 995.7 933.6 983.4C933.8 982.6 934.1 981.7 934.3 980.9 934.8 979.3 934.5 977.4 934 976.4 931.8 974.8 929.1 974.8 927 975.9L909.1 992.7 885.5 985.2 922 952C924.4 950.1 924.4 947.4 923 946 921.1 943.6 918.4 943.7 916.2 944.8L875.8 982.1 854.6 975.4 843 924.3 858.2 910.3 912.7 927.6C915.2 928.3 917.3 927.2 918.1 924.8 918.8 922.3 917.7 920.2 915.3 919.4L865.6 903.7 884.3 887.3 909.5 895.2C911.1 895.7 914.3 894.1 915.1 891.6 915.9 889.2 914 886.8 912.3 886.3L892 879.8 913.3 860.6C913.5 859.8 913.5 859.8 913.8 859 914.3 857.4 914 855.5 913.5 854.4 911.3 852.8 908.6 852.9 907.2 854.2ZM844.9 972.3L845.8 978 842 981.3 810.6 1009.9 806.9 1013.2 802 1011.6 762.2 999 757.3 997.5 756.1 992.6 746.8 951.2 745.7 946.4 749.7 942.3 780.8 914.5 784.8 910.4 789.7 911.9 829.5 924.5 834.4 926.1 835.3 931.7 844.9 972.3Z" fill="rgba(51, 121, 194, 0.58)"></path><path d="M1539.3 768.9L1599.6 805.6 1604.7 824.4 1573.4 854.6 1554.1 849.4 1520.3 787.3C1519.7 786.6 1519.7 786.6 1519.1 786 1517.9 784.8 1516.1 784.2 1513.7 785.3 1511.8 787.1 1511.2 788.9 1512.3 791.3L1542.1 845.6 1512.7 837.2 1499.3 813.4C1499.3 813.4 1498.7 812.8 1498.7 812.8 1497.5 811.6 1495.7 810.9 1493.3 812.1 1491.4 812.7 1490.8 815.7 1491.9 818.1L1500.1 834 1478.5 827.5C1476.7 826.9 1474.3 828.1 1473 830.4S1474.1 835.3 1476.5 836.5L1497.5 842.4 1482.3 851.1C1479.9 852.3 1479.2 855.3 1480.4 857.7 1481.5 859 1483.9 860.2 1486.4 859.1L1510.2 845.6 1540.2 854.6 1485.9 884.4C1483.5 885.6 1482.8 888.6 1483.4 890.4 1485.2 892.2 1487.6 893.5 1490 892.3L1551.6 857.8 1571.4 863.6 1581.5 904.8 1566.8 919.1 1496.2 918.4C1493.7 918.3 1491.9 920.1 1491.9 922.5S1493.6 926.8 1496 926.8L1558.2 927.3 1535.4 949.3 1508.9 948.8C1506.5 948.7 1504.6 950.5 1504 953.5S1505.7 957.8 1508.1 957.8L1526.8 957.6 1510.2 973.6C1508.4 975.3 1508.9 978.4 1510.7 980.2 1512.5 982 1514.9 982.1 1516.8 980.3L1533.3 964.3 1533 982.4C1532.4 985.4 1534.1 987.3 1537.2 986.7 1539.6 986.8 1541.4 985 1541.5 982.6L1541.9 956 1564.7 934.1 1562.9 996.2C1562.9 998.6 1565.3 1001.1 1567.7 1001.1S1571.9 999.4 1572 997L1573.3 925.8 1588 911.6 1629.4 923.8 1633.9 943.2 1597.2 1003.5C1596 1005.9 1597.1 1008.3 1598.9 1010.2 1601.3 1011.4 1603.7 1010.3 1605.6 1008.5L1637.3 955.3 1644.6 985 1630.3 1008.3C1629.1 1010.7 1630.2 1013.1 1632 1015 1633.8 1015.6 1636.8 1015.1 1638.1 1012.7L1647.4 997.8 1653 1019.6C1653.6 1021.4 1656 1022.7 1658.4 1022.7 1660.9 1021.5 1662.1 1019.2 1661.5 1017.3L1655.9 995.5 1672 1004.9C1673.8 1005.5 1676.8 1004.9 1677.5 1003.1 1679.3 1001.4 1678.8 999.5 1677 997.7 1677 997.7 1676.4 997.1 1676.4 997.1L1653.1 982.8 1645.8 953.1 1698.9 984.8C1701.3 986.1 1703.7 986.1 1705 983.7 1706.2 981.3 1705.7 979.5 1704.5 978.3 1703.9 977.7 1703.9 977.7 1703.9 977.7L1642.4 940.9 1637.9 921.6 1669.2 891.3 1687.9 897.1 1722.9 959.3C1723.5 961.1 1726.5 961.8 1728.3 961.2 1730.8 960.1 1731.4 957 1730.3 954.6L1700.5 900.4 1729.9 908.7 1743.3 932.5C1744.5 935 1746.9 936.2 1748.7 934.4 1751.2 933.3 1751.8 930.3 1751.3 928.4L1741.9 912.6 1763.5 919C1765.9 919 1768.3 917.9 1769.6 915.5 1769.6 914.3 1769 912.5 1767.9 911.2 1767.3 910.6 1767.3 910.6 1766.1 910.6L1744.5 904.2 1760.3 894.8C1762.7 893.6 1762.8 891.2 1762.2 889.4 1761.6 888.8 1761.6 888.8 1761 888.2 1759.9 887 1758.1 886.3 1756.2 886.9L1732.5 900.3 1703 892 1757.3 862.2C1759.1 860.4 1760.4 858 1758.6 856.2 1758.6 854.9 1758.6 854.9 1758 854.3 1756.8 853.1 1754.4 853.1 1752.6 853.6L1690.4 888.7 1671.8 882.9 1661.1 841.1 1675.2 827.5 1746.4 828.8C1748.8 828.8 1751.3 826.4 1751.3 824S1749 819.2 1746.6 819.1L1684.4 818.6 1706.6 797.3 1733.7 797.2C1736.1 797.2 1738 795.4 1738 793 1738.1 790.6 1736.3 788.8 1733.9 788.7L1715.8 788.4 1732.4 772.4C1733.6 771.2 1734.2 768.2 1732.5 766.4 1730.7 764.5 1727.1 764.5 1725.8 765.6L1709.3 781.6 1709.6 763.5C1709.6 762.3 1709.6 761.1 1709 760.5 1707.9 759.3 1706.6 759.3 1705.4 759.2 1703 759.2 1701.2 761 1701.1 763.4L1700 790.5 1677.9 811.8 1679.7 749.7C1679.7 748.5 1679.1 747.9 1677.9 746.7 1677.3 746 1676.7 745.4 1675.5 745.4 1673.1 745.4 1670.6 747.7 1670.6 750.1L1668.7 820.7 1654.6 834.3 1613.8 822.7 1608.1 803.3 1645.4 742.5C1646 740.7 1646.1 738.2 1644.9 737 1644.3 736.4 1644.3 736.4 1643.7 737 1641.9 735.1 1638.9 735.7 1637.6 738.1L1605.9 791.2 1598 760.9 1612.3 737.6C1612.9 735.8 1612.4 734 1611.2 732.8 1611.2 732.8 1610.6 732.2 1610.6 732.2 1608.8 730.3 1605.8 730.9 1604.5 733.3L1595.2 749.4 1589.5 727.6C1589.6 726.3 1589 725.7 1588.4 725.1 1587.2 723.9 1585.4 723.3 1584.8 723.8 1581.8 724.4 1580.5 726.8 1580.5 729.2L1586.1 751 1571.2 741.7C1568.8 740.5 1565.8 741 1564.5 743.4 1563.9 745.2 1564.4 748.2 1566.2 748.9L1589.5 763.2 1596.8 792.9 1543.7 761.1C1541.3 759.9 1538.8 761 1537 762.8 1536.4 764.6 1536.9 767.6 1539.3 768.9ZM1583.6 857.8L1607.5 834.7 1611.2 831.1 1616 832.4 1647.2 841.5 1652.6 843.4 1653.7 848.2 1661.6 879.7 1662.7 884.6 1659 888.1 1635.1 911.2 1631.4 914.8 1626.6 913.5 1595.4 904.5 1590.6 903.2 1588.9 897.7 1581 866.2 1579.9 861.4 1583.6 857.8Z" fill="rgba(51, 121, 194, 0.58)"></path><path d="M1279.7 736L1267.4 805.7 1215.4 841.5 1210.3 778.6 1256.6 725C1256.6 725 1256.9 724.2 1256.9 724.2 1257.7 722.7 1256.9 720.4 1255.7 718.9 1253.7 717 1250.7 717.5 1249.6 719.8L1209.3 766.8 1206.8 736.3 1224.3 715.3C1224.3 715.3 1224.7 714.5 1224.7 714.5 1225.4 713 1224.6 710.7 1223.4 709.2 1221.5 707.4 1218.4 707.8 1217.3 710.1L1205 724.1 1203.4 701.6C1203.4 699.7 1200.7 697.5 1198.8 697.5 1196.1 697.2 1194.6 700.3 1194.7 702.2L1196.3 724.7 1182.3 712.3C1180.3 710.5 1177.3 710.9 1176.2 713.2 1174.3 715.2 1174.8 718.2 1177.1 719.3L1198 736.8 1199.8 767 1152.8 726.7C1150.8 724.8 1147.8 725.3 1146.7 727.6 1144.8 729.5 1145.3 732.6 1147.6 733.7L1201.2 779.9 1206.3 842.8 1148.5 815.3 1124.6 748.2C1123.8 746 1121.5 744.9 1119.2 745.7 1116.9 746.5 1115.8 748.8 1116.6 751.1L1137.7 810.2 1109.9 797 1101 772C1100.2 769.7 1097.9 768.6 1095.6 769.4 1093.4 770.2 1092.3 772.6 1093.1 774.8L1099.1 791.9 1077.6 781.6C1075.6 779.8 1073 781.3 1071.9 783.7 1070.8 786 1071.6 788.2 1073.9 789.3L1093.9 798.9 1076.9 804.9C1074.6 805.7 1073.5 808.1 1074.3 810.3S1077.4 813.7 1079.7 812.9L1104.7 804 1132.5 817.2 1073.4 838.2C1071.1 839 1070 841.3 1070.8 843.6 1071.6 845.9 1073.9 847 1076.2 846.2L1143.3 822.3 1200.3 849.4 1148.4 885.2 1080.5 872.8C1077.9 872.5 1076 874.4 1074.9 876.7 1074.6 879.4 1076.5 881.3 1078.8 882.4L1139.7 893.4 1114.5 910.7 1087.7 905.5C1085 905.2 1083.1 907.1 1082 909.4 1081.7 912.1 1083.7 914 1085.2 914.7L1103.6 917.8 1085.1 930.7C1083.6 931.9 1082.2 935 1084.1 936.9 1086.1 938.7 1088.4 939.8 1090.2 937.9L1108.7 924.9 1105.6 943.3C1105.3 946 1107.2 947.8 1108.8 948.6 1110.7 948.5 1113 947.7 1113.7 946.2 1113.7 946.2 1114.1 945.4 1114.1 945.4L1119.3 918.6 1144.5 901.3 1133.5 962.2C1133.2 964.9 1135.1 966.7 1136.7 967.5 1138.6 967.4 1140.8 966.6 1141.6 965.1 1141.6 965.1 1141.9 964.3 1141.9 964.3L1154.3 894.6 1206.2 858.8 1211.3 921.7 1165.1 975.3C1163.2 977.2 1163.6 980.3 1165.9 981.4 1167.9 983.3 1170.9 982.8 1172 980.5L1212.3 933.5 1214.8 964 1197.3 985C1195.4 986.9 1195.9 989.9 1198.2 991 1200.1 992.9 1203.2 992.5 1204.3 990.2L1216.6 976.2 1218.2 998.7C1218.2 1000.6 1221 1002.8 1222.9 1002.8 1224.8 1002.7 1226.3 1001.5 1227 1000 1227.4 999.2 1227.7 998.5 1227.3 997.3L1225.7 974.8 1239.7 987.2C1241.7 989 1244.7 988.6 1245.8 986.3 1245.8 986.3 1246.2 985.5 1246.2 985.5 1246.9 984 1246.1 981.7 1244.9 980.2L1224 962.7 1221.4 932.2 1268.4 972.5C1270.4 974.3 1273.4 973.9 1274.5 971.6 1274.5 971.6 1274.9 970.8 1274.9 970.8 1275.6 969.3 1274.8 967 1273.6 965.5L1220 919.2 1214.9 856.3 1272 883.4 1295.9 950.5C1296.7 952.8 1299 953.9 1301.3 953.1 1303.5 952.3 1304.6 950 1303.8 947.7L1283.5 888.9 1311.3 902.1 1320.2 927.1C1321 929.4 1323.3 930.5 1325.6 929.7S1329 926.6 1328.2 924.3L1322.1 907.2 1342.1 916.8C1344.4 917.9 1346.7 917.1 1347.8 914.7 1348.9 912.4 1348.1 910.2 1345.8 909.1L1325.7 899.5 1342.8 893.5C1343.9 893.1 1345.1 892.7 1345.8 891.1S1346.1 888.4 1345.7 887.3C1344.9 885 1342.6 883.9 1340.3 884.7L1315.3 893.6 1287.6 880.5 1346.7 859.4C1347.8 859 1349 858.6 1349.7 857.1 1350.1 856.3 1350 854.4 1349.6 853.3 1348.8 851 1346.5 849.9 1344.2 850.7L1277.2 874.6 1220.1 847.5 1272.1 811.7 1341.8 824C1343.7 824 1346 823.2 1346.7 821.6 1346.7 821.6 1347.1 820.9 1347.1 820.9 1347.4 818.2 1345.4 816.3 1343.9 815.6L1283 804.6 1308.2 787.3 1335 792.5C1336.9 792.4 1339.2 791.6 1340 790.1 1340 790.1 1340.3 789.3 1340.3 789.3 1340.6 786.6 1338.7 784.8 1337.2 784L1318.8 781 1337.2 768C1337.6 767.2 1338.7 766.8 1339.1 766.1 1339.8 764.5 1339.8 762.6 1338.6 761.1 1336.7 759.2 1334.3 758.1 1332.5 760.1L1314 773 1317.1 754.7C1317.4 752 1315.5 750.1 1313.9 749.4 1311.3 749.1 1309.4 751 1308.7 752.5L1303.5 779.4 1278.3 796.7 1289.2 735.8C1289.6 733.1 1287.6 731.2 1286.1 730.5 1282.7 731.7 1280 733.3 1279.7 736Z" fill="rgba(51, 121, 194, 0.58)"></path><path d="M1759.5 330.4L1809 377.3 1809.1 402.1 1792.5 386.3C1791.1 384.1 1788.5 384.7 1786.3 386 1785.3 387.6 1785.2 390.7 1786.8 391.7L1809.3 414 1810.2 438.4 1788.9 426.4 1780.2 395.7C1780.2 395.7 1779.8 395 1779.8 395 1778.9 393.5 1776.6 393 1774.7 393.1 1772.5 394.5 1771.5 396.1 1772.1 398.7L1778.5 420.8 1757.2 408.7 1737.6 343.7C1737.6 343.7 1737.9 342.6 1737.9 342.6 1737 341.1 1734.7 340.5 1732.8 340.7 1730.1 341.3 1728.8 344.1 1730.2 346.3L1746.8 403.1 1720.3 389.2 1712.9 363.8C1712.9 363.8 1712.9 363.8 1712.4 363.1 1711.5 361.6 1709.9 360.6 1708 360.8 1705.8 362.1 1704.1 364.1 1704.7 366.8L1709.9 383.6 1690.7 373.3C1688.6 371.6 1686.4 372.9 1685.4 374.5 1683.7 376.6 1684.3 379.2 1687.1 380.5L1705.6 391.2 1689.1 395.3C1686.9 396.6 1685.1 398.7 1686.5 400.8 1687.1 403.5 1688.7 404.5 1691.3 403.9L1716.7 396.4 1742.4 410.7 1684.9 427.8C1683 427.9 1681.7 430.7 1682.3 433.4 1683.2 434.8 1685.2 436.6 1687.8 436L1752.9 416.4 1774.1 428.4 1752.1 434.8C1749.5 435.4 1748.9 437.8 1749.5 440.4 1749.6 442.3 1752.4 443.6 1754.3 443.4L1784.6 434 1806.6 445.6 1785.5 458.5 1755 451.1C1752.6 450.5 1750.4 451.8 1749.9 454.2 1748.9 455.8 1750.6 458.7 1753 459.3L1775.3 464.7 1754.1 477.5 1688 460.8C1685.7 460.3 1683.5 461.6 1682.9 463.9 1682.3 466.3 1683.7 468.5 1686 469L1743.9 483.8 1719.1 498.8 1693.3 492.6C1691 492 1688.8 493.3 1688.2 495.7 1687.6 498 1689 500.2 1691.3 500.8L1708.2 505.5 1690 516.6C1687.8 517.9 1687.2 520.3 1688.5 522.4 1689.9 524.6 1692.2 525.2 1694.4 523.9L1712.6 512.8 1708.6 529.2C1708.1 531.5 1709.4 533.7 1711.7 534.3S1716.3 533.5 1716.8 531.2L1722.8 506.6 1748.3 491 1734.4 548.5C1733.8 550.8 1735.1 553 1737.5 553.6 1739.8 554.2 1742 552.8 1742.6 550.5L1758.5 484.8 1779.7 472 1774.3 494.3C1773.7 496.6 1775 498.8 1777.4 499.4 1779.7 499.9 1781.9 498.6 1782.5 496.3L1789.9 465.8 1810.3 453.3 1810.7 477 1788.9 500.3C1787.9 501.9 1787.8 505 1789.4 506 1791.5 507.8 1793.4 507.6 1795.6 506.3L1811.4 489.6 1811.8 513.3 1765 562.8C1763.3 564.9 1763.4 566.8 1764.8 568.9 1766.8 570.7 1769.5 570.1 1770.9 569.2L1812.5 525.9 1812.7 555.8 1795.1 574.5C1792.9 575.8 1793.5 578.4 1794.9 580.6 1796.5 581.6 1799.5 581.8 1801.3 579.7L1812.9 567.6 1813.9 589C1813.4 591.3 1815.4 593.1 1818.5 593.2 1820.4 593 1822.1 591 1822 589.1L1821.7 567.3 1834.2 579.6C1836.3 581.4 1838.9 580.8 1839.9 579.2 1842.1 577.8 1841.9 575.9 1841.1 574.5 1840.6 573.7 1840.6 573.7 1840.2 573L1821.5 555.4 1821.3 525.6 1864.1 566.4C1865.5 568.6 1868.1 568 1870.3 566.7 1871.3 565.1 1871.1 563.2 1870.2 561.7 1869.8 561 1869.8 561 1869.8 561L1820.6 513 1820.2 489.3 1836.8 505.1C1838.9 506.9 1840.8 506.7 1843 505.4 1844 503.8 1844.6 501.4 1843.7 500 1843.2 499.2 1843.2 499.2 1842.8 498.5L1819.5 476.7 1819.1 453 1839.9 464.3 1849.3 494.5C1849.9 497.1 1852.7 498.4 1854.6 498.3 1856.8 497 1858.6 494.9 1857.2 492.7L1850.8 470.7 1872.4 481.5 1891.7 547.7C1891.8 549.6 1894.6 550.9 1896.5 550.7 1898.7 549.4 1900.5 547.3 1899.9 544.7L1883.3 487.9 1909 502.2 1916 526.9C1916.6 529.5 1919.4 530.8 1921.6 529.5 1923.5 529.3 1925.2 527.3 1924.6 524.6L1919.4 507.8 1938.6 518.1C1940.2 519.1 1942.9 518.5 1944.6 516.5 1944.9 515.3 1944.7 513.4 1943.8 511.9 1943.8 511.9 1943.4 511.2 1943 510.5L1923.7 500.2 1940.5 495C1942.4 494.8 1943.7 492 1943.6 490.1 1943.1 489.4 1943.1 489.4 1943.1 489.4 1941.8 487.2 1939.4 486.6 1938 487.5L1913.3 494.6 1886.9 480.7 1944.4 463.6C1946.6 462.3 1947.6 460.7 1947 458.1 1947 458.1 1946.6 457.3 1946.6 457.3 1945.7 455.9 1944.1 454.9 1941.4 455.5L1876 474.3 1855.1 463 1877.2 456.6C1879.4 455.3 1881.1 453.2 1879.8 451 1880.5 450.6 1880.1 449.8 1880.1 449.8 1879.2 448.4 1876.9 447.8 1875 448L1844.7 457.4 1823.4 445.4 1843.8 432.9 1874.3 440.4C1876.7 440.9 1879.6 439.2 1880.2 436.8 1880 434.9 1878.7 432.7 1877.1 431.7L1854 426.7 1875.2 413.9 1940.8 429.8C1943.2 430.4 1945.4 429.1 1945.9 426.7 1946.5 424.4 1945.2 422.2 1942.8 421.6L1885.4 407.7 1910.9 392.1 1935.5 398.1C1937.9 398.7 1940.1 397.4 1940.6 395S1939.9 390.5 1937.5 389.9L1921.1 385.9 1939.3 374.8C1941.5 373.5 1942.1 371.2 1940.8 369 1939.4 366.8 1937.1 366.2 1934.9 367.5L1916.7 378.6 1920.2 361.5C1920.5 360.3 1920.8 359.1 1920.4 358.4 1919.9 357.7 1918.3 356.7 1917.1 356.4 1914.8 355.8 1912.6 357.1 1912 359.5L1906.5 384.8 1881 400.4 1894.5 342.2C1894.8 341 1895.1 339.8 1894.6 339.1 1894.2 338.4 1892.6 337.4 1891.4 337.1 1889 336.5 1886.9 337.8 1886.3 340.2L1870.7 406.6 1849.6 419.4 1855.8 396.7C1856 395.5 1855.2 394.1 1854.7 393.4 1854.3 392.6 1853.8 391.9 1852.7 391.6 1850.3 391 1847.4 392.8 1847.6 394.7L1839.4 425.6 1819 438.1 1818.1 413.6 1840.4 391.1C1841.4 389.5 1841.9 387.1 1841.1 385.7 1840.6 385 1840.6 385 1839.9 385.4 1838.6 383.2 1835.5 383.1 1833.7 385.1L1817.9 401.8 1817 377.3 1865 328.2C1866 326.6 1865.8 324.7 1865 323.2 1864.5 322.5 1864.5 322.5 1864.5 322.5 1862.5 320.7 1860.1 320.1 1858.4 322.2L1816.8 365.5 1816.6 335.6 1834.2 316.9C1835.9 314.9 1835.8 313 1834.9 311.5 1834.9 311.5 1834.4 310.8 1834.4 310.8 1832.4 309.1 1829.8 309.7 1828.3 310.5L1816.4 323.8 1816.1 302C1815.7 301.3 1815.2 300.5 1814.8 299.8 1814.3 299.1 1812.7 298.1 1811.5 297.8 1808.9 298.4 1806.7 299.7 1807.3 302.3L1807.6 324.1 1795.1 311.8C1793 310 1790.4 310.6 1788.9 311.5 1787.2 313.6 1787.8 316.2 1789.1 318.4L1807.8 336 1808.7 365.4 1765.9 324.5C1763.8 322.8 1760.8 322.7 1759.7 324.3 1758 326.3 1757.4 328.7 1759.5 330.4Z" fill="rgba(51, 121, 194, 0.58)"></path><path d="M296.7 341.5L285.3 360.8 278.2 349.3C277.5 348 275.6 347.4 273.7 348.1 272.4 349.4 271.8 351.3 273.1 352.6L281.5 367.2 273.3 382.6 255.8 352.1C254.5 350.8 252.6 350.2 251.3 350.8 249.4 352.1 248.8 354.1 250.1 355.3L269.5 389.1 256.3 412.2 243.9 384.2 232 412.4 218.3 389.5 237.3 355.4C237.9 355.4 237.9 354.8 237.9 354.2 237.9 352.9 237.2 351.6 235.9 351 234.6 350.3 232.7 351 231.5 352.3L214.5 383.2 206 367.9 214.2 353.1C214.8 352.4 214.8 351.8 214.8 351.2 214.8 350.5 214.2 349.2 212.9 348.6 211.6 348 209.7 348.6 209 349.9L202.1 361.5 190.4 342.4C189.8 340.5 187.8 340.5 185.9 341.2 184.7 341.8 184 343.7 185.3 345.7L196.4 364.8 182.9 364.9C181 364.9 179.7 366.8 179.8 368.1 179.8 370 181.1 371.3 183 371.3L200.3 371.1 208.7 386.4 174.2 386.7C172.2 386.7 171 388 171 389.9 171 391.2 172.3 393.1 174.2 393.1L212.6 392.8 226.3 415.7 196.1 412.8 214.3 436.9 187.4 437.2 167.9 404C166.6 402.1 164.7 402.2 163.4 402.8 162.1 403.5 161.5 405.4 162.2 407.3L180.4 437.2 163.1 437.4 154 422.7C153.3 420.8 151.4 420.2 149.5 421.5 148.2 422.1 147.6 424.1 148.9 426L155.4 437.4 133 437.6C131.1 437.6 129.8 438.9 129.8 440.9S131.1 444 133.1 444L155.5 443.8 149.2 455.4C147.9 457.3 148.6 459.3 149.8 459.9 151.8 461.1 153.7 460.5 154.3 458.6L163.1 443.8 180.4 443.6 162.8 473.9C162.1 475.8 162.8 477.7 164.1 478.3 166 479.6 167.9 478.9 168.5 477L187.5 443.6 214.3 443.3 196.6 467.8 226.7 464.3 213.4 487.5 175 487.8C173.1 487.8 171.9 489.8 171.9 491.1 171.9 493 173.2 494.2 175.1 494.2L210.3 493.9 201.5 509.4 184.2 509.5C182.3 509.5 181 510.8 181 512.7 181 514 182.3 515.9 184.2 515.9L197.7 515.8 187 535.1C185.7 537 186.4 538.9 188.3 539.6 189.6 540.2 191.5 540.2 192.1 538.2L203.5 518.9 210.6 530.4C211.3 531.7 213.2 532.3 214.5 531.6 215.7 531 216.4 529.7 216.4 529.1 216.4 528.4 216.4 527.8 215.7 527.2L207.3 512.5 215.4 497.1 233 527.6C234.3 528.9 236.2 529.5 237.5 528.9 238.8 528.2 239.4 526.9 239.4 525.7 239.4 525 239.4 525 238.7 524.4L219.2 490.6 232.5 467.5 244.9 495.5 256.8 467.3 270.4 490.2 251.5 524.3C250.9 525.6 250.9 527.5 252.8 528.7 254.1 529.4 256 528.7 257.3 527.4L274.3 496.6 282.8 511.8 274.6 526.6C273.3 527.9 274 529.8 275.9 531.1 277.2 531.7 279.1 531.1 280.4 529.8L286.7 518.2 298.4 537.3C299 539.2 300.9 539.2 302.9 538.6 303.5 537.9 304.1 536.6 304.1 536 304.1 535.3 304.1 534.7 303.5 534.1L292.4 515 305.8 514.8C307.8 514.8 309 512.9 309 511.6L309 511.6C309 509.7 307.7 508.4 305.8 508.4L288.5 508.6 280.1 493.3 314.6 493C316.5 493 317.8 491.7 317.8 489.8S316.5 486.6 314.6 486.6L276.2 486.9 262.5 464 292.6 467 274.5 442.8 301.4 442.6 320.9 475.7C322.2 477.6 324.1 477.6 325.4 476.9 326.6 476.3 327.3 474.3 326.6 472.4L309.1 442.5 325.7 442.3 334.8 457C335.4 458.9 337.4 459.5 339.3 458.2 340.5 457.6 341.2 455.7 340.5 453.7L333.4 442.3 355.8 442.1C357.7 442.1 359 440.8 358.9 438.9S357.6 435.7 355.7 435.7L333.3 435.9 339.6 424.3C340.3 423.7 340.2 423 340.2 422.4 340.2 421.1 339.6 420.5 338.9 419.8 337 418.6 335.1 419.2 334.5 421.2L325.6 435.9 308.4 436.1 326 405.9C326 405.2 326 404.6 326 403.9 326 402.7 325.3 402 324.7 401.4 322.8 400.1 320.9 400.8 320.2 402.7L301.3 436.2 274.4 436.4 292.1 411.9 262.1 415.4 275.3 392.2 313.7 391.9C315.7 391.9 316.9 389.9 316.9 388.7 316.9 386.7 315.6 385.5 313.7 385.5L279.1 385.8 287.3 370.4 304.6 370.2C306.5 370.2 307.8 368.9 307.8 367S306.4 363.8 304.5 363.8L291.1 363.9 301.8 344.6C302.4 344 302.4 343.3 302.4 342.7 302.4 342.1 301.8 340.8 300.5 340.2 299.2 339.5 297.3 339.6 296.7 341.5ZM278.8 419.7L264.2 439.7 279.1 459.4 254.1 457.1 244.7 479.5 234.3 457.2 210 460 224.5 440 209.7 420.3 234 422.7 244 400.2 253.8 422.5 278.8 419.7Z" fill="rgba(51, 121, 194, 0.58)"></path><path d="M1164 552.6L1171.5 482.4 1186.3 469.8 1227 485.2 1230.5 504.8 1188.8 562C1188.5 562.8 1188.5 562.8 1188.2 563.6 1187.5 565.2 1187.7 567.1 1189.8 568.8 1192.2 569.7 1194.1 569.5 1195.8 567.4L1232.2 517.3 1237.2 547.5 1221.4 569.8C1221.4 569.8 1221.1 570.6 1221.1 570.6 1220.5 572.2 1220.7 574.1 1222.8 575.8 1224.1 577.2 1227.1 576.5 1228.8 574.4L1239.6 560.3 1243 582.6C1243.2 584.5 1245.3 586.2 1248 586.3S1251.9 583.2 1252 580.5L1248.3 559 1262.7 569.1C1264.8 570.8 1267.8 570.1 1269.5 568 1270.1 566.4 1270.3 563.7 1268.2 562L1245.9 546.2 1241.2 515.3 1291.3 551.6C1293.4 553.3 1296.4 552.6 1297.8 551.3 1298.7 548.9 1298.8 546.2 1296.7 544.5L1239.2 503.6 1236 483.2 1269 456.4 1288.1 463.7 1317.6 527.8C1318.6 530 1321 531 1323.2 530S1326.3 526.6 1325.3 524.4L1299.3 467.9 1328.8 479.1 1339.7 503.4C1340.7 505.6 1343.1 506.5 1346.1 505.8S1349.2 502.4 1348.2 500.2L1340 483.4 1361.5 491.6C1363.9 492.5 1366.4 490.7 1367.3 488.3 1368.2 485.9 1367.2 483.7 1364.9 482.8L1343.3 474.6 1359.8 467.2C1362.8 466.5 1363.7 464.1 1361.9 461.6 1360.9 459.4 1358.6 458.5 1356.4 459.5L1332.1 470.4 1302.6 459.2 1359.5 434.2C1361.7 433.2 1363 430 1362 427.8S1358.6 424.7 1356.4 425.7L1291.5 454.9 1272.3 447.7 1265.7 405 1281.3 392.7 1351.5 400.1C1354.2 400.2 1355.9 398.2 1356.8 395.8 1356.9 393.1 1354.8 391.4 1352.4 390.5L1290.8 384.4 1314.6 365.1 1341.7 368.1C1344.4 368.2 1346.1 366.2 1347 363.8 1346.8 361.9 1345.1 359.4 1342.4 359.3L1324.9 357.2 1342.2 342.8C1343.6 341.5 1343.7 338.8 1342.8 336.6 1340.7 334.9 1338 334.8 1336.6 336.1L1319.2 350.5 1320.8 331.9C1320.6 330 1318.8 327.5 1316.9 327.7 1314.5 326.8 1313.1 328.1 1312.2 330.5 1312.2 330.5 1311.9 331.3 1311.9 331.3L1308.9 358.4 1285.2 377.7 1291.2 316.1C1291.3 313.4 1290.3 311.2 1287.6 311.1 1284.9 311 1283.5 312.3 1282.9 313.9 1282.6 314.7 1282.6 314.7 1282.6 314.7L1275.6 386 1260 398.3 1219.3 382.8 1216.6 363.6 1257.9 305.3C1259.3 304 1258.6 301 1257.3 299.6 1255.2 297.9 1252.2 298.6 1250.5 300.7L1214.2 350.8 1209.2 320.6 1224.9 298.3C1226.7 296.2 1226.8 293.5 1224.4 292.6 1222.3 290.9 1219.3 291.6 1217.9 292.8L1207.5 308.1 1204.1 285.8C1203.1 283.6 1201 281.9 1198.3 281.8 1197.2 282.3 1195.8 283.6 1195.2 285.2 1194.9 286 1194.9 286 1195.4 287.1L1198.8 309.4 1183.6 299C1181.5 297.3 1179.3 298.3 1177.9 299.6 1177.6 300.4 1177.6 300.4 1177.3 301.2 1176.7 302.8 1176.9 304.7 1178.2 306.1L1200.5 321.8 1205.5 352 1155.4 315.7C1153 314.8 1150.3 314.7 1149.4 317 1148.3 317.5 1148.3 317.5 1148 318.3 1147.4 319.9 1148.3 322.1 1149.6 323.5L1207.9 364.8 1210.6 384.1 1177.4 411.6 1159 404.7 1129.8 339.7C1128.8 337.5 1125.6 336.3 1123.4 337.3S1120 341.5 1121 343.7L1147 400.1 1118.3 389.2 1106.6 364.7C1105.6 362.5 1103.3 361.6 1101 362.6 1098.8 363.6 1097.9 366 1098.9 368.2L1106.4 384.7 1084.8 376.5C1083.2 375.9 1080.2 376.6 1079.3 379 1078.4 381.4 1079.9 384.7 1081.5 385.3L1103 393.5 1086.5 400.9C1085.4 401.4 1084.3 401.9 1084 402.7 1083.4 404.3 1083.9 405.4 1084.4 406.5 1085.4 408.7 1087.8 409.6 1090 408.6L1115 398 1143.7 408.9 1086.8 433.9C1085.7 434.4 1085.4 435.2 1084.8 436.7 1084.5 437.5 1084.2 438.3 1084.7 439.4 1085.7 441.6 1088.9 442.9 1091.1 441.9L1155.7 413.5 1174 420.4 1181 462.3 1165.8 475.7 1094.8 467.9C1092.9 468.1 1090.7 469.1 1090.1 470.7 1089.8 471.5 1089.8 471.5 1090.6 471.8 1089.7 474.2 1091.5 476.7 1094.2 476.8L1155.8 482.9 1131.8 502.9 1104.6 499.9C1102.7 500.1 1101.3 501.4 1100.7 503 1100.7 503 1100.4 503.8 1100.4 503.8 1099.5 506.2 1101.3 508.7 1104 508.8L1122.5 510.4 1105.2 524.8C1104.1 525.3 1103.8 526.1 1103.5 526.9 1102.9 528.5 1103.1 530.4 1103.9 530.7 1105.7 533.2 1108.4 533.3 1110.6 532.3L1127.9 517.9 1125.8 535.4C1125.7 538.1 1127.5 540.6 1130.2 540.7 1132.1 540.5 1134.6 538.7 1134.4 536.8L1137.4 509.7 1161.2 490.4 1155.1 552C1155 554.7 1157.1 556.4 1159.5 557.3 1161.4 557.1 1163.9 555.3 1164 552.6ZM1225.6 474.6L1194.4 462.8 1189.7 461 1188.8 456.1 1183.6 424 1183 418.4 1186.9 415.3 1212.1 394.7 1216 391.6 1220.8 393.4 1251.9 405.2 1256.7 407.1 1257.6 412 1262.7 444 1263.6 448.9 1259.4 452.8 1234.3 473.4 1230.3 476.5 1225.6 474.6Z" fill="rgba(51, 121, 194, 0.58)"></path><path d="M410.9 638.9L432.6 675.6 428.4 690.5 421.1 678.1C420.7 676.6 419 676.5 417.4 676.9 416.6 677.7 416 679.6 416.7 680.4L426.4 697.7 422.8 712.5 412 701.6 412.1 681.7C412.1 681.7 412 681.2 412 681.2 411.7 680.2 410.4 679.4 409.2 679.2 407.7 679.6 406.8 680.4 406.7 682.1L406.8 696.4 396 685.6 395.5 643.1C395.5 643.1 395.9 642.5 395.9 642.5 395.6 641.4 394.3 640.7 393.1 640.5 391.4 640.4 390.1 641.8 390.6 643.4L390.7 680.4 377.3 667.5 377.2 650.9C377.2 650.9 377.2 650.9 377 650.4 376.7 649.4 375.9 648.5 374.8 648.2 373.2 648.7 371.8 649.6 371.7 651.3L372 662.3 362.2 652.8C361.2 651.4 359.7 651.8 358.8 652.6 357.4 653.5 357.3 655.2 358.8 656.5L368 666.1 357.4 665.7C355.9 666.1 354.5 667.1 354.9 668.6 354.8 670.3 355.6 671.2 357.3 671.3L373.8 671.2 386.8 684.2 349.3 684.5C348.1 684.3 346.9 685.7 346.8 687.4 347.1 688.4 348 689.8 349.7 689.9L392.1 689.4 402.8 700.3 388.5 700.3C386.8 700.2 386 701.6 385.9 703.2 385.7 704.4 387.2 705.7 388.3 705.9L408.1 705.5 419.3 716.2 404.4 720.3 387.4 710.6C386.1 709.8 384.5 710.3 383.8 711.6 382.9 712.4 383.5 714.4 384.8 715.2L397.2 722.3 382.3 726.4 345.5 704.9C344.2 704.2 342.6 704.6 341.9 705.9 341.1 707.2 341.6 708.8 342.9 709.5L375.1 728.3 357.6 733.1 343.2 724.9C341.9 724.1 340.4 724.6 339.6 725.9 338.9 727.2 339.3 728.7 340.6 729.5L349.9 735.2 337 738.7C335.5 739.2 334.7 740.5 335.2 742 335.6 743.6 336.9 744.3 338.4 743.9L351.3 740.4 346.1 749.5C345.3 750.8 345.8 752.4 347.1 753.1S349.9 753.5 350.7 752.2L358.5 738.4 376.5 733.5 358.2 765.6C357.5 766.9 357.9 768.4 359.2 769.2 360.5 769.9 362 769.5 362.8 768.2L383.7 731.5 398.6 727.4 391.5 739.9C390.8 741.2 391.2 742.7 392.5 743.5 393.8 744.2 395.4 743.8 396.1 742.5L405.8 725.4 420.2 721.5 416.4 735.8 399.3 746C398.4 746.8 397.8 748.7 398.6 749.5 399.5 750.9 400.7 751.2 402.3 750.8L414.6 743.5 410.8 757.8 374.2 779.5C372.8 780.4 372.5 781.6 373 783.1 373.9 784.5 375.6 784.6 376.6 784.3L409 765.5 404 783.5 390.2 791.6C388.7 792.1 388.6 793.8 389 795.3 389.8 796.2 391.6 796.8 393 795.9L402.1 790.6 399 803.6C398.3 804.9 399.2 806.3 401 806.9 402.2 807.2 403.6 806.2 403.8 805.1L407.4 791.9 412.8 801.5C413.8 802.9 415.4 803 416.3 802.2 417.9 801.8 418.1 800.6 417.8 799.6 417.7 799.1 417.7 799.1 417.5 798.5L409.3 784.8 414.4 766.8 433.1 798.7C433.5 800.3 435.2 800.4 436.7 799.9 437.6 799.1 437.8 798 437.6 796.9 437.4 796.4 437.4 796.4 437.4 796.4L416.2 759.1 420 744.8 427.2 757.2C428.2 758.6 429.3 758.8 430.9 758.4 431.8 757.6 432.5 756.3 432.2 755.3 432.1 754.8 432.1 754.8 432 754.2L421.8 737.1 425.6 722.8 436.2 733.2 436.6 753C436.5 754.7 438 755.9 439.1 756.2 440.7 755.7 442.1 754.8 441.6 753.2L441.6 738.9 452.7 749.1 452.9 792.2C452.6 793.4 454.1 794.6 455.2 794.9 456.8 794.4 458.2 793.5 458.3 791.8L458.1 754.8 471.1 767.9 471 783.9C471 785.6 472.4 786.9 473.9 786.4 475.1 786.7 476.5 785.7 476.6 784L476.4 773.1 486.2 782.5C486.9 783.4 488.6 783.5 490 782.6 490.4 781.9 490.6 780.8 490.4 779.7 490.4 779.7 490.2 779.2 490.1 778.7L480.3 769.2 491.3 769C492.5 769.2 493.7 767.8 494 766.6 493.8 766.1 493.8 766.1 493.8 766.1 493.4 764.5 492.1 763.8 491 764.1L475 764 461.5 751.1 499 750.8C500.6 750.4 501.5 749.6 501.6 747.9 501.6 747.9 501.4 747.4 501.4 747.4 501.1 746.4 500.3 745.5 498.7 745.4L456.1 745.4 445.5 735.1 459.9 735C461.4 734.6 462.8 733.6 462.4 732.1 462.9 732 462.8 731.4 462.8 731.4 462.5 730.4 461.2 729.7 460 729.4L440.2 729.9 429.5 719 443.9 715 460.9 724.7C462.3 725.5 464.3 724.9 465.1 723.6 465.3 722.5 464.9 720.9 464.1 720L451.1 713.1 466 709 502.7 729.9C504 730.7 505.6 730.2 506.3 728.9 507.1 727.6 506.6 726.1 505.3 725.3L473.2 707 491.2 702.1 505 709.9C506.3 710.7 507.8 710.3 508.6 708.9S508.9 706.1 507.6 705.3L498.4 700.1 511.3 696.6C512.8 696.2 513.6 694.9 513.2 693.3 512.7 691.8 511.4 691 509.9 691.5L497 695 502.1 685.3C502.5 684.6 502.9 684 502.7 683.5 502.6 682.9 501.8 682.1 501.1 681.7 499.8 680.9 498.3 681.4 497.5 682.7L489.8 696.9 471.8 701.9 490 669.2C490.4 668.6 490.7 667.9 490.6 667.4 490.5 666.9 489.7 666 489 665.6 487.7 664.9 486.2 665.3 485.4 666.6L464.6 703.8 449.7 707.9 457.3 695.3C457.7 694.7 457.4 693.6 457.3 693.1 457.1 692.6 457 692.1 456.3 691.7 455 691 453 691.5 452.7 692.7L442.5 709.9 428.1 713.8 431.8 699 449 689.3C449.9 688.5 450.7 687.2 450.4 686.2 450.2 685.7 450.2 685.7 449.7 685.8 449.3 684.2 447.5 683.6 446.1 684.6L433.7 691.8 437.4 677 474.7 655.7C475.6 654.9 475.8 653.8 475.5 652.7 475.4 652.2 475.4 652.2 475.4 652.2 474.4 650.8 473.1 650.1 471.7 651L439.3 669.8 444.3 651.9 458.1 643.7C459.5 642.8 459.8 641.6 459.5 640.6 459.5 640.6 459.3 640 459.3 640 458.4 638.6 456.7 638.5 455.7 638.8L446.2 644.7 449.8 631.6C449.7 631.1 449.5 630.5 449.4 630 449.3 629.5 448.5 628.6 447.8 628.3 446.1 628.2 444.6 628.6 444.5 630.3L440.9 643.4 435.5 633.8C434.6 632.4 432.9 632.3 431.9 632.6 430.5 633.6 430.4 635.2 430.8 636.8L439 650.6 434.5 668.4 415.8 636.5C414.8 635.1 413 634.5 412.1 635.3 410.7 636.2 410 637.5 410.9 638.9Z" fill="rgba(51, 121, 194, 0.58)"></path><path d="M155.4 1120.2L168.5 1102.1 174.5 1114.1C175.1 1115.5 176.9 1116.3 178.9 1115.8 180.3 1114.6 181.1 1112.8 179.9 1111.4L172.9 1096 182.5 1081.4 197.1 1113.5C198.2 1114.9 200.1 1115.7 201.4 1115.2 203.4 1114.1 204.3 1112.2 203.1 1110.9L186.9 1075.4 202.3 1053.6 212 1082.7 226.5 1055.7 237.9 1079.8 215.8 1112C215.2 1111.9 215.1 1112.6 215.1 1113.2 215 1114.5 215.5 1115.8 216.7 1116.5 217.9 1117.3 219.9 1116.8 221.3 1115.7L241.2 1086.6 248.1 1102.6 238.6 1116.5C237.9 1117.1 237.8 1117.7 237.8 1118.4 237.7 1119 238.2 1120.3 239.5 1121.1 240.7 1121.8 242.6 1121.4 243.4 1120.2L251.4 1109.3 261.2 1129.4C261.7 1131.4 263.6 1131.6 265.6 1131.1 266.9 1130.6 267.7 1128.7 266.6 1126.7L257.4 1106.6 270.8 1107.8C272.7 1107.9 274.2 1106.1 274.3 1104.9 274.4 1103 273.3 1101.6 271.4 1101.4L254.2 1099.9 247.2 1083.9 281.6 1086.9C283.5 1087 284.9 1085.9 285.1 1084 285.2 1082.7 284.1 1080.7 282.2 1080.5L243.9 1077.2 232.5 1053 262.2 1058.8 246.5 1033.1 273.3 1035.4 289.5 1070.2C290.6 1072.2 292.5 1072.4 293.9 1071.9 295.2 1071.4 296 1069.5 295.5 1067.5L280.3 1036 297.5 1037.5 305.2 1053C305.6 1054.9 307.5 1055.7 309.5 1054.6 310.8 1054.1 311.6 1052.2 310.5 1050.2L305.2 1038.2 327.5 1040.1C329.4 1040.3 330.8 1039.1 330.9 1037.2S329.9 1033.9 328 1033.8L305.7 1031.8 313.1 1020.9C314.5 1019.1 314.1 1017.1 312.8 1016.4 311 1014.9 309.1 1015.4 308.3 1017.3L298.1 1031.1 280.8 1029.6 301.3 1001.2C302.1 999.4 301.7 997.4 300.4 996.7 298.6 995.2 296.7 995.7 295.9 997.5L273.8 1029 247.1 1026.7 267 1004 236.8 1004.6 252.2 982.8 290.4 986.1C292.3 986.3 293.8 984.5 293.9 983.2 294.1 981.3 292.9 979.9 291 979.8L255.9 976.7 266.2 962.2 283.4 963.7C285.3 963.9 286.7 962.7 286.9 960.8 287 959.5 285.9 957.5 284 957.3L270.6 956.1 283.1 938C284.5 936.2 284 934.2 282.2 933.4 281 932.6 279.1 932.5 278.2 934.3L265.1 952.4 259.1 940.4C258.6 939 256.7 938.2 255.4 938.8 254 939.3 253.3 940.5 253.2 941.1 253.2 941.8 253.1 942.4 253.7 943.1L260.7 958.5 251.1 973.1 236.6 941C235.4 939.6 233.5 938.8 232.2 939.3 230.9 939.8 230.1 941 230 942.3 230 943 230 943 230.5 943.6L246.7 979.1 231.3 1000.9 221.7 971.8 207.1 998.8 195.7 974.7 217.8 942.5C218.5 941.3 218.7 939.4 216.9 938 215.7 937.2 213.7 937.7 212.3 938.8L192.4 967.9 185.5 951.9 195.1 938C196.4 936.8 196 934.8 194.2 933.4 193 932.7 191 933.1 189.6 934.3L182.2 945.2 172.4 925.1C171.9 923.1 170 922.9 168.1 923.4 167.4 924 166.6 925.2 166.6 925.9 166.5 926.5 166.5 927.1 167 927.8L176.2 947.9 162.8 946.7C160.9 946.6 159.5 948.4 159.3 949.6L159.3 949.6C159.2 951.6 160.3 952.9 162.3 953.1L179.5 954.6 186.4 970.6 152 967.6C150.1 967.5 148.7 968.6 148.5 970.5S149.5 973.8 151.4 974L189.7 977.3 201.1 1001.5 171.4 995.7 187.1 1021.4 160.3 1019.1 144.1 984.3C143 982.3 141.1 982.1 139.8 982.6 138.4 983.1 137.6 985 138.1 987L152.7 1018.4 136.1 1017 128.5 1001.6C128 999.6 126.1 998.8 124.1 999.9 122.8 1000.4 122 1002.3 122.5 1004.2L128.5 1016.3 106.2 1014.4C104.2 1014.2 102.9 1015.4 102.7 1017.3S103.7 1020.6 105.6 1020.8L127.9 1022.7 120.5 1033.6C119.8 1034.2 119.8 1034.8 119.7 1035.5 119.6 1036.8 120.2 1037.4 120.8 1038.1 122.6 1039.6 124.6 1039.1 125.4 1037.3L135.6 1023.4 152.8 1024.9 132.3 1053.3C132.3 1053.9 132.2 1054.6 132.1 1055.2 132 1056.5 132.6 1057.2 133.2 1057.9 135 1059.3 137 1058.8 137.8 1057L159.8 1025.5 186.6 1027.8 166.6 1050.5 196.8 1049.9 181.5 1071.7 143.2 1068.4C141.3 1068.2 139.8 1070 139.7 1071.3 139.6 1073.2 140.7 1074.6 142.6 1074.7L177.1 1077.7 167.4 1092.3 150.2 1090.8C148.3 1090.7 146.9 1091.8 146.8 1093.7S147.8 1097 149.7 1097.2L163.1 1098.4 150.6 1116.5C149.9 1117.1 149.8 1117.8 149.8 1118.4 149.7 1119 150.2 1120.4 151.4 1121.1 152.7 1121.9 154.6 1122 155.4 1120.2ZM180.7 1044L197 1025.5 184.1 1004.5 208.8 1009.2 220.3 987.7 228.5 1010.9 253 1010.5 236.6 1029 249.5 1050 225.5 1045.4 213.4 1066.8 205.7 1043.6 180.7 1044Z" fill="rgba(51, 121, 194, 0.58)"></path><path d="M947.5 68.5L937.8 77.7 935.4 69C935.2 68.1 934.1 67.3 932.7 67.4 931.7 68 930.9 69.1 931.1 70L934 81.5 924.9 90 919.2 66.6C918.7 65.1 917.6 64.4 916.6 65 915.2 65 914.5 66.1 914.9 67.6L921.3 93.4 913.2 101.3 888.2 94.1 885.7 84.5 906.3 65.1C906.4 64.7 906.5 64.3 906.7 63.9 906.8 63.5 906.6 62.5 906.3 62 905.3 60.8 904 60.9 903.2 62L884.4 79.7 881.6 67.8 890.9 58.5C891.3 58.6 891.4 58.2 891.5 57.8 891.8 57 891.6 56 890.9 55.4 890.2 54.7 888.9 54.8 887.8 55.4L880.3 63 876.6 48.2C876.4 47.2 875.3 46.5 873.9 46.5 872.9 47.1 872.1 48.2 872.3 49.1L875.8 63 867.2 60.6C866 60.2 864.8 61.2 864.6 62 864.2 63.3 864.7 64.7 865.9 65.1L877 68.3 879.8 80.2 856.8 73.6C855.6 73.2 854.5 73.8 854.2 75 853.8 76.3 854.4 77.3 855.7 77.7L881.1 85 883.9 95.1 865 113.2 855.6 110.5 848.9 84.2C848.8 82.8 847.3 81.9 846.3 82.5 844.9 82.6 844.6 83.8 844.6 85.1L850.6 109.1 838.7 105.7 835.9 93.8C835.8 92.8 834.2 91.9 833.3 92.1S831.5 93.8 831.5 95.2L833.8 104.2 819.5 100.1C818.2 99.8 817.1 100.8 816.7 102 816.5 102.8 816.9 104.3 818.2 104.6L832.5 108.8 825.7 115.7C825 116.4 824.7 117.6 825.7 118.8 826.4 119.4 828.1 119.5 828.8 118.8L837.4 110.2 849.3 113.6 831.6 130.7C830.8 131.8 830.4 133 831.4 134.2 832.1 134.8 833.9 134.9 834.5 134.2L854.3 115 863.7 117.7 870.2 143.1 862.4 150.2 836.9 142.9C835.7 142.5 834.6 143.1 834.3 144.3 833.9 145.6 834.4 147 835.6 147.4L858.6 154 849.9 162.6 838.8 159.4C837.6 159 836.6 159.6 836.2 160.9 835.9 162.1 836.4 163.1 837.7 163.5L846.3 166 835.9 175.9C835.2 176.6 835.2 178.3 835.9 179 837 179.7 838.2 180.1 839 179L849.9 168.8 852.4 178.8C852.9 179.9 854.1 180.6 855 180.5 855.9 180.3 856.6 179.6 856.8 178.8 856.8 178.8 856.9 178.4 856.6 177.8L853.7 165 862.3 156.4 868.9 181.4C869 182.7 870.1 183.5 871.6 183 872.1 182.7 872.6 182.4 872.9 181.6 873 181.2 873.1 180.8 873.2 180.4L866 153 873.3 146.2 898.3 153.4 900.9 164.3 881.8 182.8C880.7 183.8 880.7 185.2 881.8 185.9 882.4 187 883.8 186.9 884.9 185.9L902.2 169.2 905.4 181.2 896.8 189.4C896.2 190.1 896.2 191.4 896.8 192.5 897.9 193.2 899.2 193.6 899.9 192.5L906.6 186.4 909.9 199.3C910 200.7 911.2 201 912.6 201 913.1 200.7 913.7 200 914 199.2 914 199.2 914.1 198.8 914.2 198.4L910.7 184.5 920.9 187.4C921.7 187.6 923.2 187.2 923.6 185.9 923.9 184.7 922.9 183.5 922.1 183.3L909.4 179.7 906.2 167.6 931.2 174.8C932.4 175.2 933.6 174.2 933.9 172.9S933.7 170.7 932.5 170.3L905 162.4 902.6 152.4 921.5 134.3 932.2 137.4 938.7 164.1C939.3 165.2 940.4 165.9 941.7 165.9 942.3 165.6 942.9 164.9 943.2 164 943.3 163.6 943.4 163.2 943.1 162.7L937.1 138.8 949 142.2 952.2 154.2C952.4 155.1 953.5 155.9 954.8 155.9 955.9 155.3 956.7 154.2 956.5 153.2L953.9 143.6 967 147.4C967.9 147.6 969.4 146.7 969.7 145.9 970 144.7 969.1 143.1 968.3 142.9L955.2 139.1 962.4 132.7C962.5 132.3 962.6 131.9 962.7 131.5 963 130.7 962.8 129.7 962.5 129.2 961.4 128.4 960 128.5 959 129.1L950.3 137.7 938.4 134.3 956.2 117.2C957.3 116.2 957.3 114.8 956.6 114.2 955.6 113 954.2 113.1 953.2 113.7L933.5 132.9 922.8 129.8 916.3 104.4 923.7 97.2 951.2 105.1C952.4 105.5 953.5 104.9 953.8 103.6 954.2 102.4 953.6 101.4 952.4 101L927.4 93.8 936.5 85.3 949.2 89C950 89.2 951.6 88.3 951.9 87.1 952.3 85.9 951.3 84.7 950.5 84.5L940.2 81.5 950.6 71.6C950.7 71.2 950.7 71.2 950.8 70.8 951.1 70 950.9 69.1 950.6 68.5 949.5 67.8 948.1 67.8 947.5 68.5ZM917.9 128.4L918.4 131.2 916.6 132.9 901.3 147.6 899.5 149.3 897 148.6 876.9 142.8 874.4 142.1 873.8 139.7 868.6 119.1 868 116.7 869.9 114.6 885.1 100.3 887 98.2 889.5 98.9 909.6 104.7 912.1 105.4 912.6 108.2 917.9 128.4Z" fill="rgba(51, 121, 194, 0.58)"></path></g><defs><mask id="SvgjsMask1041"><rect width="1920" height="1080" fill="#ffffff"></rect></mask><linearGradient x1="10.94%" y1="-19.44%" x2="89.06%" y2="119.44%" gradientUnits="userSpaceOnUse" id="SvgjsLinearGradient1042"><stop stop-color="#0e2a47" offset="0"></stop><stop stop-color="#00459e" offset="1"></stop></linearGradient><filter id="SvgjsFilter1043"><feGaussianBlur stdDeviation="1"></feGaussianBlur></filter></defs></svg>